<svg xmlns="http://www.w3.org/2000/svg" viewBox="0 0 512 512">
  <defs>
    <linearGradient id="bg" x1="0%" y1="0%" x2="100%" y2="100%">
      <stop offset="0%" stop-color="#6366f1"/>
      <stop offset="100%" stop-color="#4f46e5"/>
    </linearGradient>
    <linearGradient id="shine" x1="0%" y1="0%" x2="100%" y2="100%">
      <stop offset="0%" stop-color="#818cf8" stop-opacity="0.4"/>
      <stop offset="100%" stop-color="#4f46e5" stop-opacity="0"/>
    </linearGradient>
  </defs>
  <rect width="512" height="512" rx="108" fill="url(#bg)"/>
  <rect width="512" height="512" rx="108" fill="url(#shine)"/>
  <g transform="translate(256,256)">
    <g transform="translate(-8,-12)">
      <rect x="-88" y="-100" width="176" height="224" rx="20" fill="white" fill-opacity="0.95"/>
      <rect x="-56" y="-64" width="112" height="8" rx="4" fill="#6366f1" fill-opacity="0.5"/>
      <rect x="-56" y="-40" width="88" height="8" rx="4" fill="#6366f1" fill-opacity="0.35"/>
      <rect x="-56" y="-16" width="100" height="8" rx="4" fill="#6366f1" fill-opacity="0.35"/>
      <rect x="-56" y="8" width="72" height="8" rx="4" fill="#6366f1" fill-opacity="0.25"/>
      <rect x="-56" y="32" width="96" height="8" rx="4" fill="#6366f1" fill-opacity="0.25"/>
      <rect x="-56" y="56" width="60" height="8" rx="4" fill="#6366f1" fill-opacity="0.2"/>
    </g>
    <g transform="translate(72,80)">
      <circle cx="0" cy="0" r="52" fill="#818cf8"/>
      <circle cx="0" cy="0" r="46" fill="#6366f1"/>
      <g transform="rotate(-45)" fill="none" stroke="white" stroke-width="7" stroke-linecap="round" stroke-linejoin="round">
        <path d="M-14,-18 L0,-30 L14,-18"/>
        <path d="M0,-30 L0,4"/>
        <path d="M14,18 L0,30 L-14,18"/>
        <path d="M0,30 L0,-4"/>
      </g>
    </g>
  </g>
</svg>
